<svg width="1024" height="1024" viewBox="0 0 1024 1024" fill="none" xmlns="http://www.w3.org/2000/svg">
<rect x="103" y="555" width="81.4876" height="81.4876" rx="40.7438" stroke="white" stroke-opacity="0.8" style="stroke:white;stroke-opacity:0.8;" stroke-width="10"/>
<rect x="103" y="677.633" width="81.4876" height="81.4876" rx="40.7438" stroke="white" stroke-opacity="0.8" style="stroke:white;stroke-opacity:0.8;" stroke-width="10"/>
<rect x="225.632" y="555" width="81.4876" height="81.4876" rx="40.7438" stroke="white" stroke-opacity="0.8" style="stroke:white;stroke-opacity:0.8;" stroke-width="10"/>
<rect x="225.632" y="677.633" width="81.4876" height="81.4876" rx="40.7438" stroke="white" stroke-opacity="0.8" style="stroke:white;stroke-opacity:0.8;" stroke-width="10"/>
<rect x="348.265" y="555" width="81.4876" height="81.4876" rx="40.7438" stroke="white" stroke-opacity="0.8" style="stroke:white;stroke-opacity:0.8;" stroke-width="10"/>
<rect x="348.265" y="677.633" width="81.4876" height="81.4876" rx="40.7438" stroke="white" stroke-opacity="0.8" style="stroke:white;stroke-opacity:0.8;" stroke-width="10"/>
<rect x="225.632" y="827.837" width="572.017" height="81.4876" rx="40.7438" stroke="white" stroke-opacity="0.8" style="stroke:white;stroke-opacity:0.8;" stroke-width="10"/>
<rect x="470.897" y="555" width="81.4876" height="81.4876" rx="40.7438" stroke="white" stroke-opacity="0.8" style="stroke:white;stroke-opacity:0.8;" stroke-width="10"/>
<rect x="470.897" y="677.633" width="81.4876" height="81.4876" rx="40.7438" stroke="white" stroke-opacity="0.8" style="stroke:white;stroke-opacity:0.8;" stroke-width="10"/>
<rect x="716.162" y="555" width="81.4876" height="81.4876" rx="40.7438" stroke="white" stroke-opacity="0.8" style="stroke:white;stroke-opacity:0.8;" stroke-width="10"/>
<rect x="716.162" y="677.633" width="81.4876" height="81.4876" rx="40.7438" stroke="white" stroke-opacity="0.8" style="stroke:white;stroke-opacity:0.8;" stroke-width="10"/>
<rect x="593.529" y="555" width="81.4876" height="81.4876" rx="40.7438" stroke="white" stroke-opacity="0.8" style="stroke:white;stroke-opacity:0.8;" stroke-width="10"/>
<rect x="593.529" y="677.633" width="81.4876" height="81.4876" rx="40.7438" stroke="white" stroke-opacity="0.8" style="stroke:white;stroke-opacity:0.8;" stroke-width="10"/>
<rect x="838.794" y="555" width="81.4876" height="81.4876" rx="40.7438" stroke="white" stroke-opacity="0.8" style="stroke:white;stroke-opacity:0.8;" stroke-width="10"/>
<rect x="838.794" y="677.633" width="81.4876" height="81.4876" rx="40.7438" stroke="white" stroke-opacity="0.8" style="stroke:white;stroke-opacity:0.8;" stroke-width="10"/>
<path d="M578.033 284.581C578.033 248.262 548.706 218.82 512.53 218.82C476.353 218.82 447.026 248.262 447.026 284.581C447.026 320.9 476.353 350.343 512.53 350.343V356.163C473.151 356.163 441.229 324.115 441.229 284.581C441.229 245.048 473.151 213 512.53 213C551.908 213 583.83 245.048 583.83 284.581C583.83 324.115 551.908 356.163 512.53 356.163V350.343C548.706 350.343 578.033 320.9 578.033 284.581Z" fill="#3AA05A" style="fill:#3AA05A;fill:color(display-p3 0.2267 0.6268 0.3534);fill-opacity:1;"/>
<path d="M252 284.581C252 324.115 283.922 356.163 323.301 356.163C362.679 356.163 394.601 324.115 394.601 284.581C394.601 245.048 362.679 213 323.301 213C283.922 213 252 245.048 252 284.581Z" fill="#3AA05A" style="fill:#3AA05A;fill:color(display-p3 0.2267 0.6268 0.3534);fill-opacity:1;"/>
<path d="M701.197 213.561C739.824 213.561 771.275 244.276 772.461 282.615L701.197 282.616V288.229H772.418C770.659 326.044 739.446 356.162 701.197 356.162C661.819 356.162 629.897 324.24 629.896 284.861C629.896 245.483 661.819 213.561 701.197 213.561ZM772.498 284.861C772.498 284.912 772.497 284.964 772.497 285.015V284.707C772.497 284.758 772.498 284.81 772.498 284.861Z" fill="#3AA05A" style="fill:#3AA05A;fill:color(display-p3 0.2267 0.6268 0.3534);fill-opacity:1;"/>
<path d="M447.966 312.933L447.966 307.319L512.53 307.319L512.53 312.933L447.966 312.933Z" fill="#3AA05A" style="fill:#3AA05A;fill:color(display-p3 0.2267 0.6268 0.3534);fill-opacity:1;"/>
<path d="M512.53 268.018V262.404H577.093V268.018H512.53Z" fill="#3AA05A" style="fill:#3AA05A;fill:color(display-p3 0.2267 0.6268 0.3534);fill-opacity:1;"/>
</svg>
