<svg width="952" height="291" viewBox="36 367 952 291" fill="none" xmlns="http://www.w3.org/2000/svg">
<path d="M627.511 512.419C627.511 448.783 576.127 397.197 512.741 397.197C449.355 397.197 397.971 448.783 397.971 512.419C397.971 576.054 449.355 627.641 512.741 627.641V637.837C443.746 637.837 387.814 581.686 387.814 512.419C387.814 443.152 443.746 387 512.741 387C581.736 387 637.668 443.152 637.668 512.419C637.668 581.686 581.736 637.837 512.741 637.837V627.641C576.127 627.641 627.511 576.054 627.511 512.419Z" fill="white"/>
<path d="M56.2632 512.419C56.2632 581.686 112.195 637.837 181.19 637.837C250.185 637.837 306.117 581.686 306.117 512.419C306.117 443.152 250.185 387 181.19 387C112.195 387 56.2632 443.152 56.2632 512.419Z" fill="white"/>
<path d="M399.618 562.094L399.618 552.257L512.74 552.257L512.74 562.094L399.618 562.094Z" fill="white"/>
<path d="M512.741 483.398V473.561H625.864V483.398H512.741Z" fill="white"/>
<path d="M843.308 387.981C910.987 387.981 966.093 441.8 968.171 508.975H843.308V518.812H968.096C965.014 585.066 910.324 637.836 843.308 637.836C774.313 637.836 718.381 581.904 718.381 512.909C718.381 443.914 774.312 387.981 843.308 387.981ZM968.234 518.812H968.096C968.187 516.855 968.234 514.888 968.234 512.909C968.234 511.593 968.211 510.281 968.171 508.975H968.234V518.812Z" fill="white"/>
</svg>
